%TF.GenerationSoftware,KiCad,Pcbnew,(6.0.7-1)-1*%
%TF.CreationDate,2022-10-20T13:43:27+02:00*%
%TF.ProjectId,sweepbling-lp__pcb,73776565-7062-46c6-996e-672d6c705f5f,rev?*%
%TF.SameCoordinates,Original*%
%TF.FileFunction,Legend,Top*%
%TF.FilePolarity,Positive*%
%FSLAX46Y46*%
G04 Gerber Fmt 4.6, Leading zero omitted, Abs format (unit mm)*
G04 Created by KiCad (PCBNEW (6.0.7-1)-1) date 2022-10-20 13:43:27*
%MOMM*%
%LPD*%
G01*
G04 APERTURE LIST*
%ADD10C,0.300000*%
%ADD11C,0.150000*%
%ADD12C,0.120000*%
%ADD13C,0.125000*%
%ADD14C,0.100000*%
%ADD15C,1.524000*%
%ADD16C,1.397000*%
G04 APERTURE END LIST*
D10*
X230270857Y-72198857D02*
X230270857Y-72698857D01*
X231056571Y-72698857D02*
X229556571Y-72698857D01*
X229556571Y-71984571D01*
X231056571Y-70770285D02*
X230270857Y-70770285D01*
X230128000Y-70841714D01*
X230056571Y-70984571D01*
X230056571Y-71270285D01*
X230128000Y-71413142D01*
X230985142Y-70770285D02*
X231056571Y-70913142D01*
X231056571Y-71270285D01*
X230985142Y-71413142D01*
X230842285Y-71484571D01*
X230699428Y-71484571D01*
X230556571Y-71413142D01*
X230485142Y-71270285D01*
X230485142Y-70913142D01*
X230413714Y-70770285D01*
X230985142Y-69413142D02*
X231056571Y-69556000D01*
X231056571Y-69841714D01*
X230985142Y-69984571D01*
X230913714Y-70056000D01*
X230770857Y-70127428D01*
X230342285Y-70127428D01*
X230199428Y-70056000D01*
X230128000Y-69984571D01*
X230056571Y-69841714D01*
X230056571Y-69556000D01*
X230128000Y-69413142D01*
X230985142Y-68198857D02*
X231056571Y-68341714D01*
X231056571Y-68627428D01*
X230985142Y-68770285D01*
X230842285Y-68841714D01*
X230270857Y-68841714D01*
X230128000Y-68770285D01*
X230056571Y-68627428D01*
X230056571Y-68341714D01*
X230128000Y-68198857D01*
X230270857Y-68127428D01*
X230413714Y-68127428D01*
X230556571Y-68841714D01*
X231056571Y-65698857D02*
X229556571Y-65698857D01*
X230985142Y-65698857D02*
X231056571Y-65841714D01*
X231056571Y-66127428D01*
X230985142Y-66270285D01*
X230913714Y-66341714D01*
X230770857Y-66413142D01*
X230342285Y-66413142D01*
X230199428Y-66341714D01*
X230128000Y-66270285D01*
X230056571Y-66127428D01*
X230056571Y-65841714D01*
X230128000Y-65698857D01*
X231056571Y-64770285D02*
X230985142Y-64913142D01*
X230913714Y-64984571D01*
X230770857Y-65056000D01*
X230342285Y-65056000D01*
X230199428Y-64984571D01*
X230128000Y-64913142D01*
X230056571Y-64770285D01*
X230056571Y-64556000D01*
X230128000Y-64413142D01*
X230199428Y-64341714D01*
X230342285Y-64270285D01*
X230770857Y-64270285D01*
X230913714Y-64341714D01*
X230985142Y-64413142D01*
X231056571Y-64556000D01*
X231056571Y-64770285D01*
X230056571Y-63770285D02*
X231056571Y-63484571D01*
X230342285Y-63198857D01*
X231056571Y-62913142D01*
X230056571Y-62627428D01*
X230056571Y-62056000D02*
X231056571Y-62056000D01*
X230199428Y-62056000D02*
X230128000Y-61984571D01*
X230056571Y-61841714D01*
X230056571Y-61627428D01*
X230128000Y-61484571D01*
X230270857Y-61413142D01*
X231056571Y-61413142D01*
X29610857Y-71690857D02*
X29610857Y-72190857D01*
X30396571Y-72190857D02*
X28896571Y-72190857D01*
X28896571Y-71476571D01*
X30396571Y-70262285D02*
X29610857Y-70262285D01*
X29468000Y-70333714D01*
X29396571Y-70476571D01*
X29396571Y-70762285D01*
X29468000Y-70905142D01*
X30325142Y-70262285D02*
X30396571Y-70405142D01*
X30396571Y-70762285D01*
X30325142Y-70905142D01*
X30182285Y-70976571D01*
X30039428Y-70976571D01*
X29896571Y-70905142D01*
X29825142Y-70762285D01*
X29825142Y-70405142D01*
X29753714Y-70262285D01*
X30325142Y-68905142D02*
X30396571Y-69048000D01*
X30396571Y-69333714D01*
X30325142Y-69476571D01*
X30253714Y-69548000D01*
X30110857Y-69619428D01*
X29682285Y-69619428D01*
X29539428Y-69548000D01*
X29468000Y-69476571D01*
X29396571Y-69333714D01*
X29396571Y-69048000D01*
X29468000Y-68905142D01*
X30325142Y-67690857D02*
X30396571Y-67833714D01*
X30396571Y-68119428D01*
X30325142Y-68262285D01*
X30182285Y-68333714D01*
X29610857Y-68333714D01*
X29468000Y-68262285D01*
X29396571Y-68119428D01*
X29396571Y-67833714D01*
X29468000Y-67690857D01*
X29610857Y-67619428D01*
X29753714Y-67619428D01*
X29896571Y-68333714D01*
X30396571Y-65190857D02*
X28896571Y-65190857D01*
X30325142Y-65190857D02*
X30396571Y-65333714D01*
X30396571Y-65619428D01*
X30325142Y-65762285D01*
X30253714Y-65833714D01*
X30110857Y-65905142D01*
X29682285Y-65905142D01*
X29539428Y-65833714D01*
X29468000Y-65762285D01*
X29396571Y-65619428D01*
X29396571Y-65333714D01*
X29468000Y-65190857D01*
X30396571Y-64262285D02*
X30325142Y-64405142D01*
X30253714Y-64476571D01*
X30110857Y-64548000D01*
X29682285Y-64548000D01*
X29539428Y-64476571D01*
X29468000Y-64405142D01*
X29396571Y-64262285D01*
X29396571Y-64048000D01*
X29468000Y-63905142D01*
X29539428Y-63833714D01*
X29682285Y-63762285D01*
X30110857Y-63762285D01*
X30253714Y-63833714D01*
X30325142Y-63905142D01*
X30396571Y-64048000D01*
X30396571Y-64262285D01*
X29396571Y-63262285D02*
X30396571Y-62976571D01*
X29682285Y-62690857D01*
X30396571Y-62405142D01*
X29396571Y-62119428D01*
X29396571Y-61548000D02*
X30396571Y-61548000D01*
X29539428Y-61548000D02*
X29468000Y-61476571D01*
X29396571Y-61333714D01*
X29396571Y-61119428D01*
X29468000Y-60976571D01*
X29610857Y-60905142D01*
X30396571Y-60905142D01*
D11*
X22269504Y-50742857D02*
X22383790Y-50780952D01*
X22421885Y-50819047D01*
X22459980Y-50895238D01*
X22459980Y-51009523D01*
X22421885Y-51085714D01*
X22383790Y-51123809D01*
X22307600Y-51161904D01*
X22002838Y-51161904D01*
X22002838Y-50361904D01*
X22269504Y-50361904D01*
X22345695Y-50400000D01*
X22383790Y-50438095D01*
X22421885Y-50514285D01*
X22421885Y-50590476D01*
X22383790Y-50666666D01*
X22345695Y-50704761D01*
X22269504Y-50742857D01*
X22002838Y-50742857D01*
X22802838Y-50857142D02*
X23412361Y-50857142D01*
X23107600Y-51161904D02*
X23107600Y-50552380D01*
X37661904Y-50742857D02*
X37776190Y-50780952D01*
X37814285Y-50819047D01*
X37852380Y-50895238D01*
X37852380Y-51009523D01*
X37814285Y-51085714D01*
X37776190Y-51123809D01*
X37700000Y-51161904D01*
X37395238Y-51161904D01*
X37395238Y-50361904D01*
X37661904Y-50361904D01*
X37738095Y-50400000D01*
X37776190Y-50438095D01*
X37814285Y-50514285D01*
X37814285Y-50590476D01*
X37776190Y-50666666D01*
X37738095Y-50704761D01*
X37661904Y-50742857D01*
X37395238Y-50742857D01*
X38195238Y-50857142D02*
X38804761Y-50857142D01*
X221913504Y-50692057D02*
X222027790Y-50730152D01*
X222065885Y-50768247D01*
X222103980Y-50844438D01*
X222103980Y-50958723D01*
X222065885Y-51034914D01*
X222027790Y-51073009D01*
X221951600Y-51111104D01*
X221646838Y-51111104D01*
X221646838Y-50311104D01*
X221913504Y-50311104D01*
X221989695Y-50349200D01*
X222027790Y-50387295D01*
X222065885Y-50463485D01*
X222065885Y-50539676D01*
X222027790Y-50615866D01*
X221989695Y-50653961D01*
X221913504Y-50692057D01*
X221646838Y-50692057D01*
X222446838Y-50806342D02*
X223056361Y-50806342D01*
X237458304Y-50742857D02*
X237572590Y-50780952D01*
X237610685Y-50819047D01*
X237648780Y-50895238D01*
X237648780Y-51009523D01*
X237610685Y-51085714D01*
X237572590Y-51123809D01*
X237496400Y-51161904D01*
X237191638Y-51161904D01*
X237191638Y-50361904D01*
X237458304Y-50361904D01*
X237534495Y-50400000D01*
X237572590Y-50438095D01*
X237610685Y-50514285D01*
X237610685Y-50590476D01*
X237572590Y-50666666D01*
X237534495Y-50704761D01*
X237458304Y-50742857D01*
X237191638Y-50742857D01*
X237991638Y-50857142D02*
X238601161Y-50857142D01*
X238296400Y-51161904D02*
X238296400Y-50552380D01*
D12*
X29094285Y-50969828D02*
X29094285Y-50369828D01*
X29322857Y-50369828D01*
X29380000Y-50398400D01*
X29408571Y-50426971D01*
X29437142Y-50484114D01*
X29437142Y-50569828D01*
X29408571Y-50626971D01*
X29380000Y-50655542D01*
X29322857Y-50684114D01*
X29094285Y-50684114D01*
X29808571Y-50369828D02*
X29922857Y-50369828D01*
X29980000Y-50398400D01*
X30037142Y-50455542D01*
X30065714Y-50569828D01*
X30065714Y-50769828D01*
X30037142Y-50884114D01*
X29980000Y-50941257D01*
X29922857Y-50969828D01*
X29808571Y-50969828D01*
X29751428Y-50941257D01*
X29694285Y-50884114D01*
X29665714Y-50769828D01*
X29665714Y-50569828D01*
X29694285Y-50455542D01*
X29751428Y-50398400D01*
X29808571Y-50369828D01*
X30265714Y-50369828D02*
X30408571Y-50969828D01*
X30522857Y-50541257D01*
X30637142Y-50969828D01*
X30780000Y-50369828D01*
X31008571Y-50655542D02*
X31208571Y-50655542D01*
X31294285Y-50969828D02*
X31008571Y-50969828D01*
X31008571Y-50369828D01*
X31294285Y-50369828D01*
X31894285Y-50969828D02*
X31694285Y-50684114D01*
X31551428Y-50969828D02*
X31551428Y-50369828D01*
X31780000Y-50369828D01*
X31837142Y-50398400D01*
X31865714Y-50426971D01*
X31894285Y-50484114D01*
X31894285Y-50569828D01*
X31865714Y-50626971D01*
X31837142Y-50655542D01*
X31780000Y-50684114D01*
X31551428Y-50684114D01*
X228636685Y-51122228D02*
X228636685Y-50522228D01*
X228865257Y-50522228D01*
X228922400Y-50550800D01*
X228950971Y-50579371D01*
X228979542Y-50636514D01*
X228979542Y-50722228D01*
X228950971Y-50779371D01*
X228922400Y-50807942D01*
X228865257Y-50836514D01*
X228636685Y-50836514D01*
X229350971Y-50522228D02*
X229465257Y-50522228D01*
X229522400Y-50550800D01*
X229579542Y-50607942D01*
X229608114Y-50722228D01*
X229608114Y-50922228D01*
X229579542Y-51036514D01*
X229522400Y-51093657D01*
X229465257Y-51122228D01*
X229350971Y-51122228D01*
X229293828Y-51093657D01*
X229236685Y-51036514D01*
X229208114Y-50922228D01*
X229208114Y-50722228D01*
X229236685Y-50607942D01*
X229293828Y-50550800D01*
X229350971Y-50522228D01*
X229808114Y-50522228D02*
X229950971Y-51122228D01*
X230065257Y-50693657D01*
X230179542Y-51122228D01*
X230322400Y-50522228D01*
X230550971Y-50807942D02*
X230750971Y-50807942D01*
X230836685Y-51122228D02*
X230550971Y-51122228D01*
X230550971Y-50522228D01*
X230836685Y-50522228D01*
X231436685Y-51122228D02*
X231236685Y-50836514D01*
X231093828Y-51122228D02*
X231093828Y-50522228D01*
X231322400Y-50522228D01*
X231379542Y-50550800D01*
X231408114Y-50579371D01*
X231436685Y-50636514D01*
X231436685Y-50722228D01*
X231408114Y-50779371D01*
X231379542Y-50807942D01*
X231322400Y-50836514D01*
X231093828Y-50836514D01*
%TO.C,U1*%
X227681571Y-48953285D02*
X227681571Y-48203285D01*
X227931571Y-48739000D01*
X228181571Y-48203285D01*
X228181571Y-48953285D01*
X228538714Y-48953285D02*
X228538714Y-48453285D01*
X228538714Y-48203285D02*
X228503000Y-48239000D01*
X228538714Y-48274714D01*
X228574428Y-48239000D01*
X228538714Y-48203285D01*
X228538714Y-48274714D01*
X229217285Y-48917571D02*
X229145857Y-48953285D01*
X229003000Y-48953285D01*
X228931571Y-48917571D01*
X228895857Y-48881857D01*
X228860142Y-48810428D01*
X228860142Y-48596142D01*
X228895857Y-48524714D01*
X228931571Y-48489000D01*
X229003000Y-48453285D01*
X229145857Y-48453285D01*
X229217285Y-48489000D01*
X229538714Y-48953285D02*
X229538714Y-48453285D01*
X229538714Y-48596142D02*
X229574428Y-48524714D01*
X229610142Y-48489000D01*
X229681571Y-48453285D01*
X229753000Y-48453285D01*
X230110142Y-48953285D02*
X230038714Y-48917571D01*
X230003000Y-48881857D01*
X229967285Y-48810428D01*
X229967285Y-48596142D01*
X230003000Y-48524714D01*
X230038714Y-48489000D01*
X230110142Y-48453285D01*
X230217285Y-48453285D01*
X230288714Y-48489000D01*
X230324428Y-48524714D01*
X230360142Y-48596142D01*
X230360142Y-48810428D01*
X230324428Y-48881857D01*
X230288714Y-48917571D01*
X230217285Y-48953285D01*
X230110142Y-48953285D01*
X230681571Y-48203285D02*
X230681571Y-48810428D01*
X230717285Y-48881857D01*
X230753000Y-48917571D01*
X230824428Y-48953285D01*
X230967285Y-48953285D01*
X231038714Y-48917571D01*
X231074428Y-48881857D01*
X231110142Y-48810428D01*
X231110142Y-48203285D01*
X231431571Y-48917571D02*
X231538714Y-48953285D01*
X231717285Y-48953285D01*
X231788714Y-48917571D01*
X231824428Y-48881857D01*
X231860142Y-48810428D01*
X231860142Y-48739000D01*
X231824428Y-48667571D01*
X231788714Y-48631857D01*
X231717285Y-48596142D01*
X231574428Y-48560428D01*
X231503000Y-48524714D01*
X231467285Y-48489000D01*
X231431571Y-48417571D01*
X231431571Y-48346142D01*
X231467285Y-48274714D01*
X231503000Y-48239000D01*
X231574428Y-48203285D01*
X231753000Y-48203285D01*
X231860142Y-48239000D01*
X232431571Y-48560428D02*
X232538714Y-48596142D01*
X232574428Y-48631857D01*
X232610142Y-48703285D01*
X232610142Y-48810428D01*
X232574428Y-48881857D01*
X232538714Y-48917571D01*
X232467285Y-48953285D01*
X232181571Y-48953285D01*
X232181571Y-48203285D01*
X232431571Y-48203285D01*
X232503000Y-48239000D01*
X232538714Y-48274714D01*
X232574428Y-48346142D01*
X232574428Y-48417571D01*
X232538714Y-48489000D01*
X232503000Y-48524714D01*
X232431571Y-48560428D01*
X232181571Y-48560428D01*
D13*
X235677047Y-57809000D02*
X235629428Y-57773285D01*
X235558000Y-57773285D01*
X235486571Y-57809000D01*
X235438952Y-57880428D01*
X235415142Y-57951857D01*
X235391333Y-58094714D01*
X235391333Y-58201857D01*
X235415142Y-58344714D01*
X235438952Y-58416142D01*
X235486571Y-58487571D01*
X235558000Y-58523285D01*
X235605619Y-58523285D01*
X235677047Y-58487571D01*
X235700857Y-58451857D01*
X235700857Y-58201857D01*
X235605619Y-58201857D01*
X235915142Y-58523285D02*
X235915142Y-57773285D01*
X236200857Y-58523285D01*
X236200857Y-57773285D01*
X236438952Y-58523285D02*
X236438952Y-57773285D01*
X236558000Y-57773285D01*
X236629428Y-57809000D01*
X236677047Y-57880428D01*
X236700857Y-57951857D01*
X236724666Y-58094714D01*
X236724666Y-58201857D01*
X236700857Y-58344714D01*
X236677047Y-58416142D01*
X236629428Y-58487571D01*
X236558000Y-58523285D01*
X236438952Y-58523285D01*
D11*
D13*
X224027047Y-55279000D02*
X223979428Y-55243285D01*
X223908000Y-55243285D01*
X223836571Y-55279000D01*
X223788952Y-55350428D01*
X223765142Y-55421857D01*
X223741333Y-55564714D01*
X223741333Y-55671857D01*
X223765142Y-55814714D01*
X223788952Y-55886142D01*
X223836571Y-55957571D01*
X223908000Y-55993285D01*
X223955619Y-55993285D01*
X224027047Y-55957571D01*
X224050857Y-55921857D01*
X224050857Y-55671857D01*
X223955619Y-55671857D01*
X224265142Y-55993285D02*
X224265142Y-55243285D01*
X224550857Y-55993285D01*
X224550857Y-55243285D01*
X224788952Y-55993285D02*
X224788952Y-55243285D01*
X224908000Y-55243285D01*
X224979428Y-55279000D01*
X225027047Y-55350428D01*
X225050857Y-55421857D01*
X225074666Y-55564714D01*
X225074666Y-55671857D01*
X225050857Y-55814714D01*
X225027047Y-55886142D01*
X224979428Y-55957571D01*
X224908000Y-55993285D01*
X224788952Y-55993285D01*
X235657047Y-60389000D02*
X235609428Y-60353285D01*
X235538000Y-60353285D01*
X235466571Y-60389000D01*
X235418952Y-60460428D01*
X235395142Y-60531857D01*
X235371333Y-60674714D01*
X235371333Y-60781857D01*
X235395142Y-60924714D01*
X235418952Y-60996142D01*
X235466571Y-61067571D01*
X235538000Y-61103285D01*
X235585619Y-61103285D01*
X235657047Y-61067571D01*
X235680857Y-61031857D01*
X235680857Y-60781857D01*
X235585619Y-60781857D01*
X235895142Y-61103285D02*
X235895142Y-60353285D01*
X236180857Y-61103285D01*
X236180857Y-60353285D01*
X236418952Y-61103285D02*
X236418952Y-60353285D01*
X236538000Y-60353285D01*
X236609428Y-60389000D01*
X236657047Y-60460428D01*
X236680857Y-60531857D01*
X236704666Y-60674714D01*
X236704666Y-60781857D01*
X236680857Y-60924714D01*
X236657047Y-60996142D01*
X236609428Y-61067571D01*
X236538000Y-61103285D01*
X236418952Y-61103285D01*
X224162761Y-53383285D02*
X223996095Y-53026142D01*
X223877047Y-53383285D02*
X223877047Y-52633285D01*
X224067523Y-52633285D01*
X224115142Y-52669000D01*
X224138952Y-52704714D01*
X224162761Y-52776142D01*
X224162761Y-52883285D01*
X224138952Y-52954714D01*
X224115142Y-52990428D01*
X224067523Y-53026142D01*
X223877047Y-53026142D01*
X224353238Y-53169000D02*
X224591333Y-53169000D01*
X224305619Y-53383285D02*
X224472285Y-52633285D01*
X224638952Y-53383285D01*
X224758000Y-52633285D02*
X224877047Y-53383285D01*
X224972285Y-52847571D01*
X225067523Y-53383285D01*
X225186571Y-52633285D01*
%TO.C,U2*%
X24175047Y-55279000D02*
X24127428Y-55243285D01*
X24056000Y-55243285D01*
X23984571Y-55279000D01*
X23936952Y-55350428D01*
X23913142Y-55421857D01*
X23889333Y-55564714D01*
X23889333Y-55671857D01*
X23913142Y-55814714D01*
X23936952Y-55886142D01*
X23984571Y-55957571D01*
X24056000Y-55993285D01*
X24103619Y-55993285D01*
X24175047Y-55957571D01*
X24198857Y-55921857D01*
X24198857Y-55671857D01*
X24103619Y-55671857D01*
X24413142Y-55993285D02*
X24413142Y-55243285D01*
X24698857Y-55993285D01*
X24698857Y-55243285D01*
X24936952Y-55993285D02*
X24936952Y-55243285D01*
X25056000Y-55243285D01*
X25127428Y-55279000D01*
X25175047Y-55350428D01*
X25198857Y-55421857D01*
X25222666Y-55564714D01*
X25222666Y-55671857D01*
X25198857Y-55814714D01*
X25175047Y-55886142D01*
X25127428Y-55957571D01*
X25056000Y-55993285D01*
X24936952Y-55993285D01*
D12*
X27829571Y-48953285D02*
X27829571Y-48203285D01*
X28079571Y-48739000D01*
X28329571Y-48203285D01*
X28329571Y-48953285D01*
X28686714Y-48953285D02*
X28686714Y-48453285D01*
X28686714Y-48203285D02*
X28651000Y-48239000D01*
X28686714Y-48274714D01*
X28722428Y-48239000D01*
X28686714Y-48203285D01*
X28686714Y-48274714D01*
X29365285Y-48917571D02*
X29293857Y-48953285D01*
X29151000Y-48953285D01*
X29079571Y-48917571D01*
X29043857Y-48881857D01*
X29008142Y-48810428D01*
X29008142Y-48596142D01*
X29043857Y-48524714D01*
X29079571Y-48489000D01*
X29151000Y-48453285D01*
X29293857Y-48453285D01*
X29365285Y-48489000D01*
X29686714Y-48953285D02*
X29686714Y-48453285D01*
X29686714Y-48596142D02*
X29722428Y-48524714D01*
X29758142Y-48489000D01*
X29829571Y-48453285D01*
X29901000Y-48453285D01*
X30258142Y-48953285D02*
X30186714Y-48917571D01*
X30151000Y-48881857D01*
X30115285Y-48810428D01*
X30115285Y-48596142D01*
X30151000Y-48524714D01*
X30186714Y-48489000D01*
X30258142Y-48453285D01*
X30365285Y-48453285D01*
X30436714Y-48489000D01*
X30472428Y-48524714D01*
X30508142Y-48596142D01*
X30508142Y-48810428D01*
X30472428Y-48881857D01*
X30436714Y-48917571D01*
X30365285Y-48953285D01*
X30258142Y-48953285D01*
X30829571Y-48203285D02*
X30829571Y-48810428D01*
X30865285Y-48881857D01*
X30901000Y-48917571D01*
X30972428Y-48953285D01*
X31115285Y-48953285D01*
X31186714Y-48917571D01*
X31222428Y-48881857D01*
X31258142Y-48810428D01*
X31258142Y-48203285D01*
X31579571Y-48917571D02*
X31686714Y-48953285D01*
X31865285Y-48953285D01*
X31936714Y-48917571D01*
X31972428Y-48881857D01*
X32008142Y-48810428D01*
X32008142Y-48739000D01*
X31972428Y-48667571D01*
X31936714Y-48631857D01*
X31865285Y-48596142D01*
X31722428Y-48560428D01*
X31651000Y-48524714D01*
X31615285Y-48489000D01*
X31579571Y-48417571D01*
X31579571Y-48346142D01*
X31615285Y-48274714D01*
X31651000Y-48239000D01*
X31722428Y-48203285D01*
X31901000Y-48203285D01*
X32008142Y-48239000D01*
X32579571Y-48560428D02*
X32686714Y-48596142D01*
X32722428Y-48631857D01*
X32758142Y-48703285D01*
X32758142Y-48810428D01*
X32722428Y-48881857D01*
X32686714Y-48917571D01*
X32615285Y-48953285D01*
X32329571Y-48953285D01*
X32329571Y-48203285D01*
X32579571Y-48203285D01*
X32651000Y-48239000D01*
X32686714Y-48274714D01*
X32722428Y-48346142D01*
X32722428Y-48417571D01*
X32686714Y-48489000D01*
X32651000Y-48524714D01*
X32579571Y-48560428D01*
X32329571Y-48560428D01*
D13*
X35707047Y-57809000D02*
X35659428Y-57773285D01*
X35588000Y-57773285D01*
X35516571Y-57809000D01*
X35468952Y-57880428D01*
X35445142Y-57951857D01*
X35421333Y-58094714D01*
X35421333Y-58201857D01*
X35445142Y-58344714D01*
X35468952Y-58416142D01*
X35516571Y-58487571D01*
X35588000Y-58523285D01*
X35635619Y-58523285D01*
X35707047Y-58487571D01*
X35730857Y-58451857D01*
X35730857Y-58201857D01*
X35635619Y-58201857D01*
X35945142Y-58523285D02*
X35945142Y-57773285D01*
X36230857Y-58523285D01*
X36230857Y-57773285D01*
X36468952Y-58523285D02*
X36468952Y-57773285D01*
X36588000Y-57773285D01*
X36659428Y-57809000D01*
X36707047Y-57880428D01*
X36730857Y-57951857D01*
X36754666Y-58094714D01*
X36754666Y-58201857D01*
X36730857Y-58344714D01*
X36707047Y-58416142D01*
X36659428Y-58487571D01*
X36588000Y-58523285D01*
X36468952Y-58523285D01*
X24310761Y-53383285D02*
X24144095Y-53026142D01*
X24025047Y-53383285D02*
X24025047Y-52633285D01*
X24215523Y-52633285D01*
X24263142Y-52669000D01*
X24286952Y-52704714D01*
X24310761Y-52776142D01*
X24310761Y-52883285D01*
X24286952Y-52954714D01*
X24263142Y-52990428D01*
X24215523Y-53026142D01*
X24025047Y-53026142D01*
X24501238Y-53169000D02*
X24739333Y-53169000D01*
X24453619Y-53383285D02*
X24620285Y-52633285D01*
X24786952Y-53383285D01*
X24906000Y-52633285D02*
X25025047Y-53383285D01*
X25120285Y-52847571D01*
X25215523Y-53383285D01*
X25334571Y-52633285D01*
X35687047Y-60389000D02*
X35639428Y-60353285D01*
X35568000Y-60353285D01*
X35496571Y-60389000D01*
X35448952Y-60460428D01*
X35425142Y-60531857D01*
X35401333Y-60674714D01*
X35401333Y-60781857D01*
X35425142Y-60924714D01*
X35448952Y-60996142D01*
X35496571Y-61067571D01*
X35568000Y-61103285D01*
X35615619Y-61103285D01*
X35687047Y-61067571D01*
X35710857Y-61031857D01*
X35710857Y-60781857D01*
X35615619Y-60781857D01*
X35925142Y-61103285D02*
X35925142Y-60353285D01*
X36210857Y-61103285D01*
X36210857Y-60353285D01*
X36448952Y-61103285D02*
X36448952Y-60353285D01*
X36568000Y-60353285D01*
X36639428Y-60389000D01*
X36687047Y-60460428D01*
X36710857Y-60531857D01*
X36734666Y-60674714D01*
X36734666Y-60781857D01*
X36710857Y-60924714D01*
X36687047Y-60996142D01*
X36639428Y-61067571D01*
X36568000Y-61103285D01*
X36448952Y-61103285D01*
D11*
%TO.C,U1*%
X221278000Y-81264000D02*
X221278000Y-82314000D01*
X239078000Y-81314000D02*
X239078000Y-82314000D01*
X230028000Y-47164000D02*
X230328000Y-47164000D01*
X230678000Y-46714000D02*
X230178000Y-47364000D01*
X229828000Y-46864000D02*
X230528000Y-46864000D01*
X229678000Y-46714000D02*
X230678000Y-46714000D01*
X233928000Y-47664000D02*
X233928000Y-46364000D01*
X239078000Y-49264000D02*
X238128000Y-49264000D01*
X221278000Y-49264000D02*
X222278000Y-49264000D01*
X230178000Y-47364000D02*
X229678000Y-46714000D01*
X226428000Y-47664000D02*
X233928000Y-47664000D01*
X226428000Y-46364000D02*
X226428000Y-47664000D01*
X233928000Y-46364000D02*
X226428000Y-46364000D01*
X239078000Y-82314000D02*
X238068000Y-82314000D01*
X221278000Y-82314000D02*
X222278000Y-82314000D01*
X229928000Y-47014000D02*
X230428000Y-47014000D01*
X221278000Y-49264000D02*
X221278000Y-50264000D01*
X239078000Y-49264000D02*
X239078000Y-50264000D01*
D12*
%TO.C,SW13*%
X168778650Y-70516000D02*
G75*
G03*
X169778650Y-71516000I919580J-80420D01*
G01*
X169856000Y-57516000D02*
G75*
G03*
X168856000Y-58516000I-80450J-919550D01*
G01*
X181856000Y-71516000D02*
G75*
G03*
X182856000Y-70516000I80451J919549D01*
G01*
X182856000Y-58516000D02*
G75*
G03*
X181856000Y-57516000I-788675J211325D01*
G01*
%TO.C,SW17*%
X231448178Y-96385848D02*
G75*
G03*
X231082152Y-95019822I-577348J577351D01*
G01*
X224082152Y-107144178D02*
G75*
G03*
X225448178Y-106778152I529448J756126D01*
G01*
X220689848Y-89019822D02*
G75*
G03*
X219323822Y-89385848I-529447J-756129D01*
G01*
X213256835Y-99739477D02*
G75*
G03*
X213622861Y-101105503I756170J-529436D01*
G01*
%TO.C,SW12*%
X151856000Y-64374000D02*
G75*
G03*
X150856000Y-65374000I-80450J-919550D01*
G01*
X150778650Y-77374000D02*
G75*
G03*
X151778650Y-78374000I919580J-80420D01*
G01*
X163856000Y-78374000D02*
G75*
G03*
X164856000Y-77374000I80451J919549D01*
G01*
X164856000Y-65374000D02*
G75*
G03*
X163856000Y-64374000I-788675J211325D01*
G01*
%TO.C,SW16*%
X199842178Y-81767604D02*
G75*
G03*
X198617433Y-82474712I-315705J-867396D01*
G01*
X195436891Y-94045802D02*
G75*
G03*
X196143997Y-95270547I867431J-315685D01*
G01*
X207809822Y-98396395D02*
G75*
G03*
X209034567Y-97689288I315706J867394D01*
G01*
X212140395Y-86098178D02*
G75*
G03*
X211433288Y-84873433I-707107J408248D01*
G01*
%TO.C,SW14*%
X200856000Y-63850000D02*
G75*
G03*
X199856000Y-62850000I-788675J211325D01*
G01*
X186778650Y-75850000D02*
G75*
G03*
X187778650Y-76850000I919580J-80420D01*
G01*
X199856000Y-76850000D02*
G75*
G03*
X200856000Y-75850000I80451J919549D01*
G01*
X187856000Y-62850000D02*
G75*
G03*
X186856000Y-63850000I-80450J-919550D01*
G01*
%TO.C,SW15*%
X205836000Y-65390000D02*
G75*
G03*
X204836000Y-66390000I-80450J-919550D01*
G01*
X217836000Y-79390000D02*
G75*
G03*
X218836000Y-78390000I80451J919549D01*
G01*
X204758650Y-78390000D02*
G75*
G03*
X205758650Y-79390000I919580J-80420D01*
G01*
X218836000Y-66390000D02*
G75*
G03*
X217836000Y-65390000I-788675J211325D01*
G01*
%TO.C,SW3*%
X182856000Y-24382000D02*
G75*
G03*
X181856000Y-23382000I-788675J211325D01*
G01*
X168778650Y-36382000D02*
G75*
G03*
X169778650Y-37382000I919580J-80420D01*
G01*
X169856000Y-23382000D02*
G75*
G03*
X168856000Y-24382000I-80450J-919550D01*
G01*
X181856000Y-37382000D02*
G75*
G03*
X182856000Y-36382000I80451J919549D01*
G01*
%TO.C,SW2*%
X151856000Y-30382000D02*
G75*
G03*
X150856000Y-31382000I-80450J-919550D01*
G01*
X163856000Y-44382000D02*
G75*
G03*
X164856000Y-43382000I80451J919549D01*
G01*
X150778650Y-43382000D02*
G75*
G03*
X151778650Y-44382000I919580J-80420D01*
G01*
X164856000Y-31382000D02*
G75*
G03*
X163856000Y-30382000I-788675J211325D01*
G01*
%TO.C,SW7*%
X150778650Y-60356000D02*
G75*
G03*
X151778650Y-61356000I919580J-80420D01*
G01*
X151856000Y-47356000D02*
G75*
G03*
X150856000Y-48356000I-80450J-919550D01*
G01*
X163856000Y-61356000D02*
G75*
G03*
X164856000Y-60356000I80451J919549D01*
G01*
X164856000Y-48356000D02*
G75*
G03*
X163856000Y-47356000I-788675J211325D01*
G01*
%TO.C,SW11*%
X146933350Y-77382000D02*
G75*
G03*
X145933350Y-76382000I-919580J80420D01*
G01*
X133856000Y-76382000D02*
G75*
G03*
X132856000Y-77382000I-80451J-919549D01*
G01*
X132856000Y-89382000D02*
G75*
G03*
X133856000Y-90382000I788675J-211325D01*
G01*
X145856000Y-90382000D02*
G75*
G03*
X146856000Y-89382000I80450J919550D01*
G01*
%TO.C,SW10*%
X204758650Y-61372000D02*
G75*
G03*
X205758650Y-62372000I919580J-80420D01*
G01*
X217836000Y-62372000D02*
G75*
G03*
X218836000Y-61372000I80451J919549D01*
G01*
X218836000Y-49372000D02*
G75*
G03*
X217836000Y-48372000I-788675J211325D01*
G01*
X205836000Y-48372000D02*
G75*
G03*
X204836000Y-49372000I-80450J-919550D01*
G01*
%TO.C,SW9*%
X199856000Y-59832000D02*
G75*
G03*
X200856000Y-58832000I80451J919549D01*
G01*
X200856000Y-46832000D02*
G75*
G03*
X199856000Y-45832000I-788675J211325D01*
G01*
X186778650Y-58832000D02*
G75*
G03*
X187778650Y-59832000I919580J-80420D01*
G01*
X187856000Y-45832000D02*
G75*
G03*
X186856000Y-46832000I-80450J-919550D01*
G01*
%TO.C,SW6*%
X132856000Y-72382000D02*
G75*
G03*
X133856000Y-73382000I788675J-211325D01*
G01*
X133856000Y-59382000D02*
G75*
G03*
X132856000Y-60382000I-80451J-919549D01*
G01*
X146933350Y-60382000D02*
G75*
G03*
X145933350Y-59382000I-919580J80420D01*
G01*
X145856000Y-73382000D02*
G75*
G03*
X146856000Y-72382000I80450J919550D01*
G01*
%TO.C,SW5*%
X205856000Y-31382000D02*
G75*
G03*
X204856000Y-32382000I-80450J-919550D01*
G01*
X218856000Y-32382000D02*
G75*
G03*
X217856000Y-31382000I-788675J211325D01*
G01*
X217856000Y-45382000D02*
G75*
G03*
X218856000Y-44382000I80451J919549D01*
G01*
X204778650Y-44382000D02*
G75*
G03*
X205778650Y-45382000I919580J-80420D01*
G01*
%TO.C,SW4*%
X199856000Y-42882000D02*
G75*
G03*
X200856000Y-41882000I80451J919549D01*
G01*
X200856000Y-29882000D02*
G75*
G03*
X199856000Y-28882000I-788675J211325D01*
G01*
X186778650Y-41882000D02*
G75*
G03*
X187778650Y-42882000I919580J-80420D01*
G01*
X187856000Y-28882000D02*
G75*
G03*
X186856000Y-29882000I-80450J-919550D01*
G01*
%TO.C,SW1*%
X145856000Y-56382000D02*
G75*
G03*
X146856000Y-55382000I80450J919550D01*
G01*
X132856000Y-55382000D02*
G75*
G03*
X133856000Y-56382000I788675J-211325D01*
G01*
X133856000Y-42382000D02*
G75*
G03*
X132856000Y-43382000I-80451J-919549D01*
G01*
X146933350Y-43382000D02*
G75*
G03*
X145933350Y-42382000I-919580J80420D01*
G01*
D14*
%TO.C,mouse-bite-2mm-slot2*%
X129302000Y-48387000D02*
G75*
G03*
X131302000Y-48387000I1000000J0D01*
G01*
X131302000Y-54229000D02*
G75*
G03*
X129302000Y-54229000I-1000000J0D01*
G01*
%TO.C,mouse-bite-2mm-slot1*%
X131302000Y-78105000D02*
G75*
G03*
X129302000Y-78105000I-1000000J0D01*
G01*
X129302000Y-72263000D02*
G75*
G03*
X131302000Y-72263000I1000000J0D01*
G01*
D12*
%TO.C,SW8*%
X169856000Y-40498000D02*
G75*
G03*
X168856000Y-41498000I-80450J-919550D01*
G01*
X168778650Y-53498000D02*
G75*
G03*
X169778650Y-54498000I919580J-80420D01*
G01*
X181856000Y-54498000D02*
G75*
G03*
X182856000Y-53498000I80451J919549D01*
G01*
X182856000Y-41498000D02*
G75*
G03*
X181856000Y-40498000I-788675J211325D01*
G01*
D11*
%TO.C,Bat+1*%
X236966000Y-51800000D02*
X236966000Y-49800000D01*
X234966000Y-49800000D02*
X234966000Y-51800000D01*
X236966000Y-49800000D02*
X234966000Y-49800000D01*
X234966000Y-51800000D02*
X236966000Y-51800000D01*
%TO.C,BatGND1*%
X223282000Y-51800000D02*
X225282000Y-51800000D01*
X225282000Y-51800000D02*
X225282000Y-49800000D01*
X225282000Y-49800000D02*
X223282000Y-49800000D01*
X223282000Y-49800000D02*
X223282000Y-51800000D01*
%TO.C,U2*%
X29826000Y-46714000D02*
X30826000Y-46714000D01*
X30176000Y-47164000D02*
X30476000Y-47164000D01*
X21426000Y-49264000D02*
X21426000Y-50264000D01*
X30826000Y-46714000D02*
X30326000Y-47364000D01*
X21426000Y-49264000D02*
X22426000Y-49264000D01*
X39226000Y-49264000D02*
X39226000Y-50264000D01*
X39226000Y-49264000D02*
X38276000Y-49264000D01*
X39226000Y-82314000D02*
X38216000Y-82314000D01*
X30076000Y-47014000D02*
X30576000Y-47014000D01*
X39226000Y-81314000D02*
X39226000Y-82314000D01*
X21426000Y-81264000D02*
X21426000Y-82314000D01*
X21426000Y-82314000D02*
X22426000Y-82314000D01*
X34076000Y-47664000D02*
X34076000Y-46364000D01*
X26576000Y-46364000D02*
X26576000Y-47664000D01*
X26576000Y-47664000D02*
X34076000Y-47664000D01*
X29976000Y-46864000D02*
X30676000Y-46864000D01*
X34076000Y-46364000D02*
X26576000Y-46364000D01*
X30326000Y-47364000D02*
X29826000Y-46714000D01*
D12*
%TO.C,SW15_r1*%
X55763350Y-66390000D02*
G75*
G03*
X54763350Y-65390000I-919580J80420D01*
G01*
X41686000Y-78390000D02*
G75*
G03*
X42686000Y-79390000I788675J-211325D01*
G01*
X54686000Y-79390000D02*
G75*
G03*
X55686000Y-78390000I80450J919550D01*
G01*
X42686000Y-65390000D02*
G75*
G03*
X41686000Y-66390000I-80451J-919549D01*
G01*
%TO.C,SW9_r1*%
X72700000Y-59832000D02*
G75*
G03*
X73700000Y-58832000I80451J919549D01*
G01*
X59622650Y-58832000D02*
G75*
G03*
X60622650Y-59832000I919580J-80420D01*
G01*
X73700000Y-46832000D02*
G75*
G03*
X72700000Y-45832000I-788675J211325D01*
G01*
X60700000Y-45832000D02*
G75*
G03*
X59700000Y-46832000I-80450J-919550D01*
G01*
%TO.C,SW13_r1*%
X90688000Y-71516000D02*
G75*
G03*
X91688000Y-70516000I80451J919549D01*
G01*
X78688000Y-57516000D02*
G75*
G03*
X77688000Y-58516000I-80450J-919550D01*
G01*
X91688000Y-58516000D02*
G75*
G03*
X90688000Y-57516000I-788675J211325D01*
G01*
X77610650Y-70516000D02*
G75*
G03*
X78610650Y-71516000I919580J-80420D01*
G01*
%TO.C,SW12_r1*%
X95636650Y-77374000D02*
G75*
G03*
X96636650Y-78374000I919580J-80420D01*
G01*
X108714000Y-78374000D02*
G75*
G03*
X109714000Y-77374000I80451J919549D01*
G01*
X96714000Y-64374000D02*
G75*
G03*
X95714000Y-65374000I-80450J-919550D01*
G01*
X109714000Y-65374000D02*
G75*
G03*
X108714000Y-64374000I-788675J211325D01*
G01*
%TO.C,SW5_r1*%
X42686000Y-31382000D02*
G75*
G03*
X41686000Y-32382000I-80451J-919549D01*
G01*
X55763350Y-32382000D02*
G75*
G03*
X54763350Y-31382000I-919580J80420D01*
G01*
X41686000Y-44382000D02*
G75*
G03*
X42686000Y-45382000I788675J-211325D01*
G01*
X54686000Y-45382000D02*
G75*
G03*
X55686000Y-44382000I80450J919550D01*
G01*
%TO.C,SW4_r1*%
X73700000Y-29882000D02*
G75*
G03*
X72700000Y-28882000I-788675J211325D01*
G01*
X72700000Y-42882000D02*
G75*
G03*
X73700000Y-41882000I80451J919549D01*
G01*
X60700000Y-28882000D02*
G75*
G03*
X59700000Y-29882000I-80450J-919550D01*
G01*
X59622650Y-41882000D02*
G75*
G03*
X60622650Y-42882000I919580J-80420D01*
G01*
%TO.C,SW1_r1*%
X113654650Y-55382000D02*
G75*
G03*
X114654650Y-56382000I919580J-80420D01*
G01*
X114732000Y-42382000D02*
G75*
G03*
X113732000Y-43382000I-80450J-919550D01*
G01*
X126732000Y-56382000D02*
G75*
G03*
X127732000Y-55382000I80451J919549D01*
G01*
X127732000Y-43382000D02*
G75*
G03*
X126732000Y-42382000I-788675J211325D01*
G01*
%TO.C,SW14_r1*%
X59622650Y-75850000D02*
G75*
G03*
X60622650Y-76850000I919580J-80420D01*
G01*
X72700000Y-76850000D02*
G75*
G03*
X73700000Y-75850000I80451J919549D01*
G01*
X73700000Y-63850000D02*
G75*
G03*
X72700000Y-62850000I-788675J211325D01*
G01*
X60700000Y-62850000D02*
G75*
G03*
X59700000Y-63850000I-80450J-919550D01*
G01*
%TO.C,SW3_r1*%
X77610650Y-36382000D02*
G75*
G03*
X78610650Y-37382000I919580J-80420D01*
G01*
X91688000Y-24382000D02*
G75*
G03*
X90688000Y-23382000I-788675J211325D01*
G01*
X90688000Y-37382000D02*
G75*
G03*
X91688000Y-36382000I80451J919549D01*
G01*
X78688000Y-23382000D02*
G75*
G03*
X77688000Y-24382000I-80450J-919550D01*
G01*
%TO.C,SW11_r1*%
X113654650Y-89382000D02*
G75*
G03*
X114654650Y-90382000I919580J-80420D01*
G01*
X114732000Y-76382000D02*
G75*
G03*
X113732000Y-77382000I-80450J-919550D01*
G01*
X127732000Y-77382000D02*
G75*
G03*
X126732000Y-76382000I-788675J211325D01*
G01*
X126732000Y-90382000D02*
G75*
G03*
X127732000Y-89382000I80451J919549D01*
G01*
%TO.C,SW10_r1*%
X55763350Y-49372000D02*
G75*
G03*
X54763350Y-48372000I-919580J80420D01*
G01*
X42686000Y-48372000D02*
G75*
G03*
X41686000Y-49372000I-80451J-919549D01*
G01*
X41686000Y-61372000D02*
G75*
G03*
X42686000Y-62372000I788675J-211325D01*
G01*
X54686000Y-62372000D02*
G75*
G03*
X55686000Y-61372000I80450J919550D01*
G01*
%TO.C,SW2_r1*%
X95636650Y-43382000D02*
G75*
G03*
X96636650Y-44382000I919580J-80420D01*
G01*
X109714000Y-31382000D02*
G75*
G03*
X108714000Y-30382000I-788675J211325D01*
G01*
X108714000Y-44382000D02*
G75*
G03*
X109714000Y-43382000I80451J919549D01*
G01*
X96714000Y-30382000D02*
G75*
G03*
X95714000Y-31382000I-80450J-919550D01*
G01*
%TO.C,SW7_r1*%
X96714000Y-47356000D02*
G75*
G03*
X95714000Y-48356000I-80450J-919550D01*
G01*
X109714000Y-48356000D02*
G75*
G03*
X108714000Y-47356000I-788675J211325D01*
G01*
X95636650Y-60356000D02*
G75*
G03*
X96636650Y-61356000I919580J-80420D01*
G01*
X108714000Y-61356000D02*
G75*
G03*
X109714000Y-60356000I80451J919549D01*
G01*
%TO.C,SW16_r1*%
X49170712Y-84873433D02*
G75*
G03*
X48463605Y-86098178I160287J-909039D01*
G01*
X62061282Y-82454692D02*
G75*
G03*
X60836536Y-81747585I-909061J-160325D01*
G01*
X51569433Y-97689288D02*
G75*
G03*
X52794178Y-98396395I816497J0D01*
G01*
X64385288Y-95290566D02*
G75*
G03*
X65092395Y-94065822I-160288J909039D01*
G01*
%TO.C,SW8_r1*%
X91688000Y-41498000D02*
G75*
G03*
X90688000Y-40498000I-788675J211325D01*
G01*
X78688000Y-40498000D02*
G75*
G03*
X77688000Y-41498000I-80450J-919550D01*
G01*
X77610650Y-53498000D02*
G75*
G03*
X78610650Y-54498000I919580J-80420D01*
G01*
X90688000Y-54498000D02*
G75*
G03*
X91688000Y-53498000I80451J919549D01*
G01*
%TO.C,SW17_r1*%
X46914152Y-101144178D02*
G75*
G03*
X47280178Y-99778152I-390103J836579D01*
G01*
X29521848Y-95019822D02*
G75*
G03*
X29155822Y-96385848I390100J-836578D01*
G01*
X41347165Y-89347173D02*
G75*
G03*
X39981139Y-88981147I-836590J-390144D01*
G01*
X35155823Y-106778152D02*
G75*
G03*
X36521848Y-107144178I788674J211322D01*
G01*
%TO.C,SW6_r1*%
X126732000Y-73382000D02*
G75*
G03*
X127732000Y-72382000I80451J919549D01*
G01*
X127732000Y-60382000D02*
G75*
G03*
X126732000Y-59382000I-788675J211325D01*
G01*
X114732000Y-59382000D02*
G75*
G03*
X113732000Y-60382000I-80450J-919550D01*
G01*
X113654650Y-72382000D02*
G75*
G03*
X114654650Y-73382000I919580J-80420D01*
G01*
D11*
%TO.C,BatGNDr1*%
X35068000Y-49800000D02*
X35068000Y-51800000D01*
X35068000Y-51800000D02*
X37068000Y-51800000D01*
X37068000Y-49800000D02*
X35068000Y-49800000D01*
X37068000Y-51800000D02*
X37068000Y-49800000D01*
%TO.C,Bat+r1*%
X23638000Y-49800000D02*
X23638000Y-51800000D01*
X25638000Y-51800000D02*
X25638000Y-49800000D01*
X25638000Y-49800000D02*
X23638000Y-49800000D01*
X23638000Y-51800000D02*
X25638000Y-51800000D01*
%TD*%
D15*
%TO.C,U1*%
X237789400Y-53086000D03*
X237789400Y-55626000D03*
X237789400Y-58166000D03*
X237789400Y-60706000D03*
X237789400Y-63246000D03*
X237789400Y-65786000D03*
X237789400Y-68326000D03*
X237789400Y-70866000D03*
X237789400Y-73406000D03*
X237789400Y-75946000D03*
X237789400Y-78486000D03*
X237789400Y-81026000D03*
X222569400Y-81026000D03*
X222569400Y-78486000D03*
X222569400Y-75946000D03*
X222569400Y-73406000D03*
X222569400Y-70866000D03*
X222569400Y-68326000D03*
X222569400Y-65786000D03*
X222569400Y-63246000D03*
X222569400Y-60706000D03*
X222569400Y-58166000D03*
X222569400Y-55626000D03*
X222569400Y-53086000D03*
%TD*%
D16*
%TO.C,Bat+1*%
X235966000Y-50800000D03*
%TD*%
%TO.C,BatGND1*%
X224282000Y-50800000D03*
%TD*%
D15*
%TO.C,U2*%
X37937400Y-53086000D03*
X37937400Y-55626000D03*
X37937400Y-58166000D03*
X37937400Y-60706000D03*
X37937400Y-63246000D03*
X37937400Y-65786000D03*
X37937400Y-68326000D03*
X37937400Y-70866000D03*
X37937400Y-73406000D03*
X37937400Y-75946000D03*
X37937400Y-78486000D03*
X37937400Y-81026000D03*
X22717400Y-81026000D03*
X22717400Y-78486000D03*
X22717400Y-75946000D03*
X22717400Y-73406000D03*
X22717400Y-70866000D03*
X22717400Y-68326000D03*
X22717400Y-65786000D03*
X22717400Y-63246000D03*
X22717400Y-60706000D03*
X22717400Y-58166000D03*
X22717400Y-55626000D03*
X22717400Y-53086000D03*
%TD*%
D16*
%TO.C,BatGNDr1*%
X36068000Y-50800000D03*
%TD*%
%TO.C,Bat+r1*%
X24638000Y-50800000D03*
%TD*%
M02*
