M48
; DRILL file {KiCad (6.0.7-1)-1} date 2022 October 21, Friday 08:25:26
; FORMAT={-:-/ absolute / metric / decimal}
; #@! TF.CreationDate,2022-10-21T08:25:26+02:00
; #@! TF.GenerationSoftware,Kicad,Pcbnew,(6.0.7-1)-1
; #@! TF.FileFunction,Plated,1,2,PTH
FMAT,2
METRIC
; #@! TA.AperFunction,Plated,PTH,ViaDrill
T1C0.400
; #@! TA.AperFunction,Plated,PTH,ComponentDrill
T2C0.813
%
G90
G05
T1
X41.656Y-35.941
X42.316Y-87.325
X58.166Y-59.436
X70.231Y-39.878
X75.743Y-23.978
X88.138Y-38.354
X106.172Y-45.339
X124.206Y-53.467
X175.895Y-42.799
X200.279Y-76.073
X215.392Y-59.436
X218.821Y-64.77
X233.426Y-58.166
T2
X22.717Y-53.086
X22.717Y-55.626
X22.717Y-58.166
X22.717Y-60.706
X22.717Y-63.246
X22.717Y-65.786
X22.717Y-68.326
X22.717Y-70.866
X22.717Y-73.406
X22.717Y-75.946
X22.717Y-78.486
X22.717Y-81.026
X24.638Y-50.8
X36.068Y-50.8
X37.937Y-53.086
X37.937Y-55.626
X37.937Y-58.166
X37.937Y-60.706
X37.937Y-63.246
X37.937Y-65.786
X37.937Y-68.326
X37.937Y-70.866
X37.937Y-73.406
X37.937Y-75.946
X37.937Y-78.486
X37.937Y-81.026
X222.569Y-53.086
X222.569Y-55.626
X222.569Y-58.166
X222.569Y-60.706
X222.569Y-63.246
X222.569Y-65.786
X222.569Y-68.326
X222.569Y-70.866
X222.569Y-73.406
X222.569Y-75.946
X222.569Y-78.486
X222.569Y-81.026
X224.282Y-50.8
X235.966Y-50.8
X237.789Y-53.086
X237.789Y-55.626
X237.789Y-58.166
X237.789Y-60.706
X237.789Y-63.246
X237.789Y-65.786
X237.789Y-68.326
X237.789Y-70.866
X237.789Y-73.406
X237.789Y-75.946
X237.789Y-78.486
X237.789Y-81.026
T0
M30
