%TF.GenerationSoftware,KiCad,Pcbnew,(6.0.7-1)-1*%
%TF.CreationDate,2022-10-20T13:43:27+02:00*%
%TF.ProjectId,sweepbling-lp__pcb,73776565-7062-46c6-996e-672d6c705f5f,rev?*%
%TF.SameCoordinates,Original*%
%TF.FileFunction,Profile,NP*%
%FSLAX46Y46*%
G04 Gerber Fmt 4.6, Leading zero omitted, Abs format (unit mm)*
G04 Created by KiCad (PCBNEW (6.0.7-1)-1) date 2022-10-20 13:43:27*
%MOMM*%
%LPD*%
G01*
G04 APERTURE LIST*
%TA.AperFunction,Profile*%
%ADD10C,0.050000*%
%TD*%
G04 APERTURE END LIST*
D10*
X131508500Y-77724000D02*
X131506254Y-89547024D01*
X219998001Y-47763999D02*
X219998045Y-27940000D01*
X223714000Y-108050000D02*
G75*
G03*
X226446000Y-107451265I1070000J1650000D01*
G01*
X219998002Y-47763999D02*
G75*
G03*
X222033002Y-49694917I1999998J69999D01*
G01*
X238688000Y-50442000D02*
G75*
G03*
X237938000Y-49692000I-750000J0D01*
G01*
X133167607Y-38099997D02*
G75*
G03*
X131572000Y-40640000I2118193J-3101803D01*
G01*
X131506294Y-89547021D02*
G75*
G03*
X133544000Y-91383119I1978006J146421D01*
G01*
X219998052Y-27940000D02*
G75*
G03*
X219563290Y-27259470I-750152J-100D01*
G01*
X223714000Y-108050000D02*
G75*
G03*
X202185134Y-98863946I-44316000J-74040000D01*
G01*
X222033002Y-49694917D02*
X237938000Y-49692000D01*
X202185133Y-98863952D02*
G75*
G03*
X133544000Y-91383119I-69219133J-316474848D01*
G01*
X238688000Y-58420000D02*
X238688000Y-66548000D01*
X236953304Y-88858150D02*
X226446000Y-107451265D01*
X236953327Y-88858162D02*
G75*
G03*
X238700000Y-81534000I-15027227J7454062D01*
G01*
X182880000Y-21502679D02*
X170180000Y-21508139D01*
X238688000Y-50442000D02*
X238688000Y-58420000D01*
X238688000Y-66548000D02*
X238688000Y-75438000D01*
X238688000Y-75438000D02*
X238700000Y-81534000D01*
X131572000Y-53848000D02*
X131572000Y-72644000D01*
X127429924Y-38099999D02*
X95497533Y-22859999D01*
X21897533Y-81533999D02*
X21909533Y-75437999D01*
X188040178Y-21897858D02*
G75*
G03*
X182880000Y-21502679I-5076178J-32395842D01*
G01*
X129343033Y-48767999D02*
X129025533Y-48767999D01*
X21909533Y-75437999D02*
X21909533Y-66547999D01*
X41034227Y-27259434D02*
G75*
G03*
X40599488Y-27939999I315173J-680466D01*
G01*
X34151495Y-107451288D02*
G75*
G03*
X36883533Y-108049999I1662005J1051288D01*
G01*
X131572000Y-48768000D02*
X131254500Y-48768000D01*
X129091279Y-89547023D02*
X129089033Y-77723999D01*
X219563290Y-27259470D02*
X188040178Y-21897859D01*
X129343033Y-77723999D02*
X129089033Y-77723999D01*
X95497524Y-22860014D02*
G75*
G03*
X90417533Y-21508138I-4991824J-8537386D01*
G01*
X21909533Y-58419999D02*
X21909533Y-50441999D01*
X34151533Y-107451264D02*
X23644229Y-88858149D01*
X40599488Y-27939999D02*
X40599532Y-47763998D01*
X127053533Y-91383118D02*
G75*
G03*
X58412399Y-98863945I578107J-323956932D01*
G01*
X131572000Y-48768000D02*
X131572000Y-40640000D01*
X170180000Y-21508139D02*
G75*
G03*
X165100000Y-22860000I-88200J-9889261D01*
G01*
X129349501Y-72643999D02*
G75*
G03*
X131254499Y-72644000I952499J380999D01*
G01*
X22659533Y-49691999D02*
X38564531Y-49694916D01*
X131572000Y-53848000D02*
X131254500Y-53848000D01*
X165100000Y-22860000D02*
X133167609Y-38100000D01*
X129025533Y-72643999D02*
X129025533Y-53847999D01*
X131254499Y-77724001D02*
G75*
G03*
X129349501Y-77724000I-952499J-380999D01*
G01*
X127053534Y-91383090D02*
G75*
G03*
X129091279Y-89547023I59766J1982490D01*
G01*
X129343033Y-53847999D02*
X129025533Y-53847999D01*
X129343033Y-72643999D02*
X129025533Y-72643999D01*
X72557355Y-21897858D02*
X41034243Y-27259469D01*
X21897521Y-81533999D02*
G75*
G03*
X23644229Y-88858149I16774379J130099D01*
G01*
X90417533Y-21508138D02*
X77717533Y-21502678D01*
X58412401Y-98863953D02*
G75*
G03*
X36883533Y-108049999I22787099J-83226047D01*
G01*
X21909533Y-66547999D02*
X21909533Y-58419999D01*
X22659533Y-49692033D02*
G75*
G03*
X21909533Y-50441999I-33J-749967D01*
G01*
X129025533Y-40639999D02*
X129025533Y-48767999D01*
X77717533Y-21502685D02*
G75*
G03*
X72557355Y-21897858I-84033J-32791115D01*
G01*
X131572000Y-72644000D02*
X131254500Y-72644000D01*
X129025515Y-40640002D02*
G75*
G03*
X127429924Y-38099999I-3713815J-561798D01*
G01*
X129349501Y-48767999D02*
G75*
G03*
X131254499Y-48768000I952499J380999D01*
G01*
X131508500Y-77724000D02*
X131254500Y-77724000D01*
X131254499Y-53848001D02*
G75*
G03*
X129349501Y-53848000I-952499J-380999D01*
G01*
X38564530Y-49694951D02*
G75*
G03*
X40599532Y-47763998I34970J2000951D01*
G01*
M02*
