M48
; DRILL file {KiCad (6.0.7-1)-1} date 2022 October 21, Friday 08:25:26
; FORMAT={-:-/ absolute / metric / decimal}
; #@! TF.CreationDate,2022-10-21T08:25:26+02:00
; #@! TF.GenerationSoftware,Kicad,Pcbnew,(6.0.7-1)-1
; #@! TF.FileFunction,NonPlated,1,2,NPTH
FMAT,2
METRIC
; #@! TA.AperFunction,NonPlated,NPTH,ComponentDrill
T1C0.500
; #@! TA.AperFunction,NonPlated,NPTH,ComponentDrill
T2C0.900
; #@! TA.AperFunction,NonPlated,NPTH,ComponentDrill
T3C1.300
; #@! TA.AperFunction,NonPlated,NPTH,ComponentDrill
T4C1.800
; #@! TA.AperFunction,NonPlated,NPTH,ComponentDrill
T5C2.200
; #@! TA.AperFunction,NonPlated,NPTH,ComponentDrill
T6C3.050
; #@! TA.AperFunction,NonPlated,NPTH,ComponentDrill
T7C3.400
%
G90
G05
T1
X129.286Y-49.276
X129.286Y-50.292
X129.286Y-51.308
X129.286Y-52.324
X129.286Y-53.34
X129.286Y-73.152
X129.286Y-74.168
X129.286Y-75.184
X129.286Y-76.2
X129.286Y-77.216
X131.318Y-49.276
X131.318Y-50.292
X131.318Y-51.308
X131.318Y-52.324
X131.318Y-53.34
X131.318Y-73.152
X131.318Y-74.168
X131.318Y-75.184
X131.318Y-76.2
X131.318Y-77.216
T2
X28.98Y-51.816
X31.98Y-51.816
X228.624Y-51.816
X231.624Y-51.816
T3
X35.797Y-104.329
X43.466Y-42.582
X43.466Y-59.572
X43.466Y-76.59
X52.823Y-95.49
X71.92Y-31.682
X71.92Y-48.632
X71.92Y-65.65
X89.908Y-26.182
X89.908Y-43.298
X89.908Y-60.316
X107.934Y-33.182
X107.934Y-50.156
X107.934Y-67.174
X125.952Y-45.182
X125.952Y-62.182
X125.952Y-79.182
X134.636Y-53.582
X134.636Y-70.582
X134.636Y-87.582
X163.076Y-33.182
X163.076Y-50.156
X163.076Y-67.174
X181.076Y-26.182
X181.076Y-43.298
X181.076Y-60.316
X199.076Y-31.682
X199.076Y-48.632
X199.076Y-65.65
X209.955Y-87.376
X217.056Y-51.172
X217.056Y-68.19
X217.076Y-34.182
X229.007Y-97.055
T4
X33.455Y-100.832
X42.981Y-95.332
X43.186Y-38.382
X43.186Y-55.372
X43.186Y-72.39
X51.465Y-91.506
X54.186Y-38.382
X54.186Y-55.372
X54.186Y-72.39
X61.2Y-35.882
X61.2Y-52.832
X61.2Y-69.85
X62.091Y-88.658
X72.2Y-35.882
X72.2Y-52.832
X72.2Y-69.85
X79.188Y-30.382
X79.188Y-47.498
X79.188Y-64.516
X90.188Y-30.382
X90.188Y-47.498
X90.188Y-64.516
X97.214Y-37.382
X97.214Y-54.356
X97.214Y-71.374
X108.214Y-37.382
X108.214Y-54.356
X108.214Y-71.374
X115.232Y-49.382
X115.232Y-66.382
X115.232Y-83.382
X126.232Y-49.382
X126.232Y-66.382
X126.232Y-83.382
X134.356Y-49.382
X134.356Y-66.382
X134.356Y-83.382
X145.356Y-49.382
X145.356Y-66.382
X145.356Y-83.382
X152.356Y-37.382
X152.356Y-54.356
X152.356Y-71.374
X163.356Y-37.382
X163.356Y-54.356
X163.356Y-71.374
X170.356Y-30.382
X170.356Y-47.498
X170.356Y-64.516
X181.356Y-30.382
X181.356Y-47.498
X181.356Y-64.516
X188.356Y-35.882
X188.356Y-52.832
X188.356Y-69.85
X198.513Y-88.658
X199.356Y-35.882
X199.356Y-52.832
X199.356Y-69.85
X206.336Y-55.372
X206.336Y-72.39
X206.356Y-38.382
X209.139Y-91.506
X217.336Y-55.372
X217.336Y-72.39
X217.356Y-38.382
X217.623Y-95.332
X227.149Y-100.832
T5
X56.642Y-46.282
X75.692Y-27.232
X75.692Y-65.332
X94.742Y-46.282
X166.306Y-46.282
X185.356Y-27.232
X185.356Y-65.332
X204.406Y-46.282
T6
X35.268Y-92.972
X40.648Y-92.291
X48.686Y-32.482
X48.686Y-49.472
X48.686Y-66.49
X53.686Y-34.582
X53.686Y-51.572
X53.686Y-68.59
X55.251Y-84.383
X60.624Y-85.117
X61.7Y-39.682
X61.7Y-56.632
X61.7Y-73.65
X66.7Y-41.782
X66.7Y-58.732
X66.7Y-75.75
X79.688Y-34.182
X79.688Y-51.298
X79.688Y-68.316
X84.688Y-36.282
X84.688Y-53.398
X84.688Y-70.416
X97.714Y-41.182
X97.714Y-58.156
X97.714Y-75.174
X102.714Y-43.282
X102.714Y-60.256
X102.714Y-77.274
X115.732Y-53.182
X115.732Y-70.182
X115.732Y-87.182
X120.732Y-55.282
X120.732Y-72.282
X120.732Y-89.282
X139.856Y-43.482
X139.856Y-60.482
X139.856Y-77.482
X144.856Y-45.582
X144.856Y-62.582
X144.856Y-79.582
X152.856Y-41.182
X152.856Y-58.156
X152.856Y-75.174
X157.856Y-43.282
X157.856Y-60.256
X157.856Y-77.274
X170.856Y-34.182
X170.856Y-51.298
X170.856Y-68.316
X175.856Y-36.282
X175.856Y-53.398
X175.856Y-70.416
X188.856Y-39.682
X188.856Y-56.632
X188.856Y-73.65
X193.856Y-41.782
X193.856Y-58.732
X193.856Y-75.75
X198.013Y-92.458
X202.299Y-95.781
X206.836Y-59.172
X206.836Y-76.19
X206.856Y-42.182
X211.836Y-61.272
X211.836Y-78.29
X211.856Y-44.282
X216.156Y-98.873
X219.436Y-103.192
T7
X38.218Y-98.082
X48.686Y-38.382
X48.686Y-55.372
X48.686Y-72.39
X56.778Y-90.082
X66.7Y-35.882
X66.7Y-52.832
X66.7Y-69.85
X84.688Y-30.382
X84.688Y-47.498
X84.688Y-64.516
X102.714Y-37.382
X102.714Y-54.356
X102.714Y-71.374
X120.732Y-49.382
X120.732Y-66.382
X120.732Y-83.382
X139.856Y-49.382
X139.856Y-66.382
X139.856Y-83.382
X157.856Y-37.382
X157.856Y-54.356
X157.856Y-71.374
X175.856Y-30.382
X175.856Y-47.498
X175.856Y-64.516
X193.856Y-35.882
X193.856Y-52.832
X193.856Y-69.85
X203.826Y-90.082
X211.836Y-55.372
X211.836Y-72.39
X211.856Y-38.382
X222.386Y-98.082
T0
M30
